<svg xmlns="http://www.w3.org/2000/svg" viewBox="0 0 800 600" preserveAspectRatio="xMidYMid slice" role="img">
  <defs>
    <linearGradient id="sky" x1="0" y1="0" x2="0" y2="1">
      <stop offset="0" stop-color="#e6ebea"/>
      <stop offset="1" stop-color="#f2f4f3"/>
    </linearGradient>
    <linearGradient id="pavement" x1="0" y1="0" x2="0" y2="1">
      <stop offset="0" stop-color="#b6bab9"/>
      <stop offset="1" stop-color="#a3a8a7"/>
    </linearGradient>
    <linearGradient id="binbody" x1="0" y1="0" x2="1" y2="0">
      <stop offset="0" stop-color="#39684c"/>
      <stop offset="0.5" stop-color="#2c563e"/>
      <stop offset="1" stop-color="#22462f"/>
    </linearGradient>
    <linearGradient id="roadg" x1="0" y1="0" x2="0" y2="1">
      <stop offset="0" stop-color="#636b72"/>
      <stop offset="1" stop-color="#454d55"/>
    </linearGradient>
    <radialGradient id="vig" cx="50%" cy="44%" r="78%">
      <stop offset="0.55" stop-color="#000000" stop-opacity="0"/>
      <stop offset="1" stop-color="#000000" stop-opacity="0.26"/>
    </radialGradient>
    <filter id="grain" x="0" y="0" width="100%" height="100%">
      <feTurbulence type="fractalNoise" baseFrequency="0.85" numOctaves="2" stitchTiles="stitch"/>
      <feColorMatrix type="matrix" values="0 0 0 0 0  0 0 0 0 0  0 0 0 0 0  0.9 0.9 0.9 0 0"/>
    </filter>
    <filter id="soft" x="-40%" y="-40%" width="180%" height="180%">
      <feGaussianBlur stdDeviation="8"/>
    </filter>
  </defs>

  <!-- backdrop -->
  <rect width="800" height="300" fill="url(#sky)"/>
  <rect x="0" y="252" width="800" height="14" fill="#9aa79b"/>
  <rect x="0" y="266" width="800" height="180" fill="url(#pavement)"/>
  <!-- paving joints -->
  <g stroke="#8f9492" stroke-width="3" opacity="0.6">
    <line x1="100" y1="266" x2="60" y2="446"/>
    <line x1="260" y1="266" x2="240" y2="446"/>
    <line x1="420" y1="266" x2="420" y2="446"/>
    <line x1="580" y1="266" x2="600" y2="446"/>
    <line x1="740" y1="266" x2="780" y2="446"/>
  </g>
  <rect x="0" y="440" width="800" height="10" fill="#84898a"/>
  <rect x="0" y="450" width="800" height="150" fill="url(#roadg)"/>
  <rect x="0" y="450" width="800" height="7" fill="#333b42" opacity="0.5"/>

  <!-- main overflowing bin -->
  <ellipse cx="470" cy="470" rx="150" ry="26" fill="#1d2227" opacity="0.4" filter="url(#soft)"/>
  <rect x="380" y="268" width="182" height="196" rx="10" fill="url(#binbody)"/>
  <rect x="380" y="268" width="182" height="14" rx="7" fill="#1d3f2c"/>
  <rect x="396" y="300" width="150" height="150" rx="8" fill="none" stroke="#1c3b2a" stroke-width="6" opacity="0.55"/>
  <rect x="452" y="296" width="38" height="34" rx="6" fill="#d5d2c6"/>
  <!-- tilted lid leaning on bin -->
  <polygon points="560,258 628,238 640,258 576,278" fill="#2a5138"/>

  <!-- heaped waste above rim -->
  <g>
    <ellipse cx="420" cy="252" rx="52" ry="34" fill="#3a4046"/>
    <ellipse cx="486" cy="240" rx="58" ry="38" fill="#444b52"/>
    <ellipse cx="546" cy="256" rx="44" ry="28" fill="#39403f"/>
    <ellipse cx="452" cy="228" rx="34" ry="22" fill="#4d545b"/>
    <path d="M 400 236 q 22 -18 46 -6" stroke="#20262b" stroke-width="4" fill="none" opacity="0.5"/>
    <path d="M 470 214 q 26 -12 44 8" stroke="#20262b" stroke-width="4" fill="none" opacity="0.45"/>
  </g>

  <!-- scattered litter on kerb + road -->
  <g opacity="0.85">
    <rect x="250" y="470" width="26" height="10" rx="3" fill="#8f948c" transform="rotate(-14 263 475)"/>
    <rect x="300" y="505" width="18" height="8" rx="3" fill="#a7a49a" transform="rotate(8 309 509)"/>
    <rect x="620" y="480" width="24" height="9" rx="3" fill="#93998f" transform="rotate(16 632 484)"/>
    <ellipse cx="360" cy="540" rx="16" ry="6" fill="#7d837b"/>
    <ellipse cx="680" cy="540" rx="14" ry="5" fill="#848a80"/>
    <path d="M 190 520 q 10 -8 20 0" stroke="#6f756d" stroke-width="5" fill="none"/>
  </g>

  <rect width="800" height="600" filter="url(#grain)" opacity="0.08"/>
  <rect width="800" height="600" fill="url(#vig)"/>
</svg>
